HIERARCHY
ROOT Hips
{
	OFFSET 0.00000 0.00000 0.00000
	CHANNELS 6 Xposition Yposition Zposition Zrotation Yrotation Xrotation 
	JOINT LHipJoint
	{
		OFFSET 0 0 0
		CHANNELS 3 Zrotation Yrotation Xrotation
		JOINT LeftUpLeg
		{
			OFFSET 1.48416 -1.82041 0.59464
			CHANNELS 3 Zrotation Yrotation Xrotation
			JOINT LeftLeg
			{
				OFFSET 2.43280 -6.68407 0.00000
				CHANNELS 3 Zrotation Yrotation Xrotation
				JOINT LeftFoot
				{
					OFFSET 2.68325 -7.37216 0.00000
					CHANNELS 3 Zrotation Yrotation Xrotation
					JOINT LeftToeBase
					{
						OFFSET 0.15365 -0.42214 1.91990
						CHANNELS 3 Zrotation Yrotation Xrotation
						End Site
						{
							OFFSET 0.00000 -0.00000 0.99320
						}
					}
				}
			}
		}
	}
	JOINT RHipJoint
	{
		OFFSET 0 0 0
		CHANNELS 3 Zrotation Yrotation Xrotation
		JOINT RightUpLeg
		{
			OFFSET -1.70852 -1.82040 0.59464
			CHANNELS 3 Zrotation Yrotation Xrotation
			JOINT RightLeg
			{
				OFFSET -2.50396 -6.87957 0.00000
				CHANNELS 3 Zrotation Yrotation Xrotation
				JOINT RightFoot
				{
					OFFSET -2.67204 -7.34139 0.00000
					CHANNELS 3 Zrotation Yrotation Xrotation
					JOINT RightToeBase
					{
						OFFSET -0.17346 -0.47657 2.02009
						CHANNELS 3 Zrotation Yrotation Xrotation
						End Site
						{
							OFFSET -0.00000 -0.00000 1.04609
						}
					}
				}
			}
		}
	}
	JOINT LowerBack
	{
		OFFSET 0 0 0
		CHANNELS 3 Zrotation Yrotation Xrotation
		JOINT Spine
		{
			OFFSET -0.01022 1.99636 -0.30653
			CHANNELS 3 Zrotation Yrotation Xrotation
			JOINT Spine1
			{
				OFFSET -0.01683 2.01212 0.04808
				CHANNELS 3 Zrotation Yrotation Xrotation
				JOINT Neck
				{
					OFFSET 0 0 0
					CHANNELS 3 Zrotation Yrotation Xrotation
					JOINT Neck1
					{
						OFFSET -0.03080 1.91178 0.03911
						CHANNELS 3 Zrotation Yrotation Xrotation
						JOINT Head
						{
							OFFSET 0.10605 1.89839 -0.23433
							CHANNELS 3 Zrotation Yrotation Xrotation
							End Site
							{
								OFFSET 0.03474 1.92469 -0.08609
							}
						}
					}
				}
				JOINT LeftShoulder
				{
					OFFSET 0 0 0
					CHANNELS 3 Zrotation Yrotation Xrotation
					JOINT LeftArm
					{
						OFFSET 3.78977 1.27972 -0.24661
						CHANNELS 3 Zrotation Yrotation Xrotation
						JOINT LeftForeArm
						{
							OFFSET 5.64147 -0.00000 -0.00000
							CHANNELS 3 Zrotation Yrotation Xrotation
							JOINT LeftHand
							{
								OFFSET 2.86444 -0.00000 -0.00000
								CHANNELS 3 Zrotation Yrotation Xrotation
								JOINT LeftFingerBase
								{
									OFFSET 0 0 0
									CHANNELS 3 Zrotation Yrotation Xrotation
									JOINT LeftHandIndex1
									{
										OFFSET 0.72212 -0.00000 -0.00000
										CHANNELS 3 Zrotation Yrotation Xrotation
										End Site
										{
											OFFSET 0.58219 -0.00000 -0.00000
										}
									}
								}
								JOINT LThumb
								{
									OFFSET 0 0 0
									CHANNELS 3 Zrotation Yrotation Xrotation
									End Site
									{
										OFFSET 0.59108 -0.00000 0.59108
									}
								}
							}
						}
					}
				}
				JOINT RightShoulder
				{
					OFFSET 0 0 0
					CHANNELS 3 Zrotation Yrotation Xrotation
					JOINT RightArm
					{
						OFFSET -3.41176 1.18605 -0.57927
						CHANNELS 3 Zrotation Yrotation Xrotation
						JOINT RightForeArm
						{
							OFFSET -5.44729 -0.00000 -0.00000
							CHANNELS 3 Zrotation Yrotation Xrotation
							JOINT RightHand
							{
								OFFSET -3.08821 -0.00000 -0.00000
								CHANNELS 3 Zrotation Yrotation Xrotation
								JOINT RightFingerBase
								{
									OFFSET 0 0 0
									CHANNELS 3 Zrotation Yrotation Xrotation
									JOINT RightHandIndex1
									{
										OFFSET -0.82105 -0.00000 -0.00000
										CHANNELS 3 Zrotation Yrotation Xrotation
										End Site
										{
											OFFSET -0.66195 -0.00000 -0.00000
										}
									}
								}
								JOINT RThumb
								{
									OFFSET 0 0 0
									CHANNELS 3 Zrotation Yrotation Xrotation
									End Site
									{
										OFFSET -0.67206 -0.00000 0.67206
									}
								}
							}
						}
					}
				}
			}
		}
	}
}
MOTION
Frames: 13
Frame Time: .0083333
3.4273 17.5593 0.3845 566.1790 87.2188 562.7230 0.0000 0.0000 0.0000 -13.8451 -1.0979 0.1404 0.8276 5.8040 16.2167 0.3013 -8.5966 -10.7145 0.1367 -2.3833 -6.5663 0.0000 0.0000 0.0000 21.1981 -2.4166 2.0522 -0.9337 -6.1552 17.2355 -1.5435 -0.4147 -23.6542 -0.0543 1.5038 -4.1363 3.3366 -0.2012 2.8597 -0.1129 -0.0979 -2.5449 -1.9817 -0.1450 -4.2394 -3.3944 -5.5156 -9.7313 4.8384 -7.5940 13.0313 1.4640 -3.4786 5.8567 -0.0000 0.0000 0.0000 73.2943 -57.3041 -90.3132 35.7732 -45.3564 -15.3609 -0.0000 0.0000 -99.6288 -4.2285 11.7321 -0.8613 -7.1250 0.0000 -0.0000 -27.1211 40.0965 3.5869 -0.0000 0.0000 0.0000 -57.0310 51.9891 -75.0656 -31.4665 42.1177 -12.3816 0.0000 -0.0000 -41.1016 2.9989 16.9946 0.8773 7.1250 -0.0000 -0.0000 20.2034 -13.6476 15.9085
3.4278 17.5603 0.3845 565.9910 87.2015 562.5240 0.0000 0.0000 0.0000 -13.8444 -1.1197 0.1538 0.8295 5.8107 16.2360 0.2996 -8.6317 -10.7043 0.1209 -2.2413 -6.1730 0.0000 0.0000 0.0000 21.1936 -2.4278 2.0680 -0.9328 -6.1523 17.2270 -1.5425 -0.4093 -23.6453 -0.0525 1.4787 -4.0670 3.3394 -0.2124 2.8784 -0.1031 -0.1115 -2.5468 -1.9723 -0.1520 -4.2528 -3.3611 -5.4734 -9.7298 4.8730 -7.5426 12.9097 1.4752 -3.4518 5.8162 -0.0000 -0.0000 0.0000 73.4609 -57.1452 -90.4218 35.8547 -45.4129 -15.4190 -0.0000 0.0000 -99.5325 -4.1916 11.7866 -0.8577 -7.1250 0.0000 -0.0000 -27.1118 40.1485 3.5471 -0.0000 -0.0000 0.0000 -57.2408 51.9581 -75.3086 -31.5604 42.1939 -12.4446 0.0000 -0.0000 -41.1209 2.9220 16.9477 0.8524 7.1250 -0.0000 -0.0000 20.1597 -13.6900 15.8497
3.4276 17.5602 0.3842 565.0640 87.1966 561.6180 0.0000 0.0000 0.0000 -13.9000 -1.1654 0.1421 0.8295 5.8104 16.2352 0.3011 -8.5848 -10.7077 0.1225 -2.2565 -6.2150 0.0000 0.0000 0.0000 21.1522 -2.4166 2.0557 -0.9320 -6.1496 17.2191 -1.5464 -0.3595 -23.6577 -0.0446 1.3628 -3.7476 3.3062 -0.2141 2.8781 -0.0986 -0.1145 -2.5712 -1.9488 -0.1529 -4.2779 -3.3640 -5.4438 -9.7108 4.9061 -7.5033 12.8053 1.4909 -3.4329 5.7799 -0.0000 0.0000 0.0000 73.6431 -57.0397 -90.5826 35.9573 -45.4837 -15.4920 -0.0000 0.0000 -99.4195 -4.1071 11.7348 -0.8367 -7.1250 0.0000 -0.0000 -27.0244 40.1101 3.5617 -0.0000 0.0000 0.0000 -57.4647 51.9086 -75.5525 -31.5990 42.2251 -12.4705 0.0000 -0.0000 -41.1496 2.8763 17.0249 0.8428 7.1250 -0.0000 -0.0000 20.1239 -13.6165 15.8511
3.4281 17.5586 0.3838 564.7420 87.1672 561.2950 0.0000 0.0000 0.0000 -13.9023 -1.1688 0.1563 0.8261 5.7990 16.2022 0.2995 -8.5795 -10.6854 0.1274 -2.3008 -6.3376 0.0000 0.0000 0.0000 21.1533 -2.4384 2.0603 -0.9318 -6.1491 17.2178 -1.5528 -0.3547 -23.7047 -0.0438 1.3513 -3.7160 3.3046 -0.2310 2.8716 -0.0780 -0.1363 -2.5734 -1.9252 -0.1633 -4.2777 -3.3736 -5.4319 -9.6954 4.9052 -7.4804 12.6366 1.4961 -3.4262 5.7237 0.0000 -0.0000 0.0000 73.7188 -56.8614 -90.5817 36.0485 -45.5465 -15.5571 -0.0000 0.0000 -99.4108 -4.0511 11.7104 -0.8235 -7.1250 0.0000 -0.0000 -26.9703 40.0934 3.5654 0.0000 -0.0000 0.0000 -57.7258 51.8654 -75.8320 -31.6442 42.2617 -12.5009 0.0000 -0.0000 -41.2031 2.9027 17.0763 0.8530 7.1250 -0.0000 -0.0000 20.1356 -13.5687 15.8836
3.4311 17.5591 0.3844 563.6400 87.1486 560.2030 0.0000 0.0000 0.0000 -13.9408 -1.1549 0.1680 0.8222 5.7857 16.1638 0.2937 -8.6584 -10.6371 0.1245 -2.2745 -6.2648 0.0000 0.0000 0.0000 21.1044 -2.4548 2.0638 -0.9313 -6.1476 17.2133 -1.5618 -0.2888 -23.7502 -0.0377 1.2527 -3.4443 3.2497 -0.2420 2.8296 -0.0716 -0.1551 -2.5634 -1.8866 -0.1703 -4.2441 -3.3529 -5.4218 -9.6364 4.8787 -7.4590 12.3975 1.4901 -3.4227 5.6361 -0.0000 -0.0000 0.0000 73.8051 -56.6393 -90.5526 36.1240 -45.5983 -15.6110 -0.0000 0.0000 -99.5159 -3.9523 11.8243 -0.8111 -7.1250 0.0000 -0.0000 -26.9331 40.2045 3.4783 -0.0000 -0.0000 0.0000 -57.9552 51.7606 -76.0007 -31.6715 42.2837 -12.5193 0.0000 -0.0000 -41.2677 2.8536 17.0309 0.8364 7.1250 -0.0000 -0.0000 20.1091 -13.6104 15.8406
3.4329 17.5605 0.3851 563.3130 87.1168 559.8770 0.0000 0.0000 0.0000 -13.9350 -1.1215 0.1823 0.8172 5.7683 16.1136 0.2884 -8.6974 -10.5817 0.1201 -2.2342 -6.1532 0.0000 0.0000 0.0000 21.1039 -2.4795 2.0705 -0.9309 -6.1463 17.2095 -1.5583 -0.3307 -23.7380 -0.0400 1.2907 -3.5491 3.2407 -0.2575 2.8196 -0.0529 -0.1754 -2.5760 -1.8610 -0.1799 -4.2526 -3.3049 -5.3928 -9.5606 4.8290 -7.4158 12.2440 1.4742 -3.4074 5.5696 -0.0000 -0.0000 0.0000 73.8169 -56.4572 -90.4030 36.1749 -45.6331 -15.6474 -0.0000 0.0000 -99.5475 -4.0385 11.7112 -0.8210 -7.1250 0.0000 -0.0000 -26.9604 40.0952 3.5625 -0.0000 -0.0000 0.0000 -58.1935 51.6929 -76.1600 -31.6620 42.2761 -12.5129 0.0000 -0.0000 -41.3309 2.7590 17.0854 0.8111 7.1250 -0.0000 -0.0000 20.0448 -13.5570 15.8070
3.4344 17.5611 0.3846 563.9020 87.0924 560.4770 0.0000 0.0000 0.0000 -13.8964 -1.1241 0.2117 0.8103 5.7445 16.0448 0.2849 -8.6803 -10.5288 0.1052 -2.0916 -5.7588 0.0000 0.0000 0.0000 21.1449 -2.4989 2.0518 -0.9315 -6.1480 17.2144 -1.5530 -0.4063 -23.7244 -0.0507 1.4529 -3.9958 3.3120 -0.2548 2.7900 -0.0389 -0.1682 -2.5915 -1.8869 -0.1783 -4.2520 -3.3090 -5.3845 -9.4515 4.8444 -7.4015 12.0622 1.4855 -3.4047 5.4945 -0.0000 -0.0000 0.0000 73.8565 -56.3349 -90.3518 36.2947 -45.7148 -15.7331 -0.0000 0.0000 -99.5175 -4.1894 11.4940 -0.8362 -7.1250 0.0000 -0.0000 -27.0016 39.8871 3.7217 -0.0000 -0.0000 0.0000 -58.4553 51.6439 -76.4608 -31.6077 42.2322 -12.4764 0.0000 -0.0000 -41.2722 2.7998 17.0809 0.8229 7.1250 -0.0000 -0.0000 20.0708 -13.5622 15.8280
3.4361 17.5615 0.3838 563.2270 87.1079 559.7900 0.0000 0.0000 0.0000 -13.9452 -1.0994 0.2646 0.8043 5.7237 15.9849 0.2863 -8.6446 -10.5352 0.1182 -2.2166 -6.1045 0.0000 0.0000 0.0000 21.0930 -2.5508 2.0412 -0.9326 -6.1518 17.2254 -1.5506 -0.4529 -23.7226 -0.0635 1.6265 -4.4744 3.2983 -0.2279 2.8101 -0.0412 -0.1318 -2.6105 -1.8839 -0.1604 -4.2811 -3.3736 -5.3988 -9.3909 4.9281 -7.4189 11.9201 1.5233 -3.4138 5.4463 -0.0000 0.0000 0.0000 74.0008 -56.2627 -90.5466 36.4661 -45.8311 -15.8559 -0.0000 0.0000 -99.4663 -4.1446 11.6282 -0.8368 -7.1250 0.0000 -0.0000 -27.0151 40.0113 3.6327 -0.0000 0.0000 0.0000 -58.6639 51.5898 -76.7298 -31.5715 42.2029 -12.4521 0.0000 -0.0000 -41.1687 2.9068 16.9377 0.8475 7.1250 -0.0000 -0.0000 20.1511 -13.6991 15.8378
3.4384 17.5606 0.3835 561.5580 87.1127 558.1090 0.0000 0.0000 0.0000 -14.0321 -1.0603 0.3046 0.7995 5.7069 15.9364 0.2855 -8.6971 -10.5427 0.1263 -2.2912 -6.3112 0.0000 0.0000 0.0000 20.9884 -2.6062 2.0374 -0.9356 -6.1614 17.2533 -1.5551 -0.3572 -23.7229 -0.0545 1.5067 -4.1442 3.2347 -0.2118 2.8060 -0.0641 -0.1145 -2.6116 -1.8731 -0.1503 -4.2785 -3.4069 -5.4207 -9.4063 4.9923 -7.4495 11.8469 1.5462 -3.4269 5.4312 -0.0000 0.0000 0.0000 74.2164 -56.1457 -90.7408 36.5743 -45.9041 -15.9336 -0.0000 0.0000 -99.4510 -4.0357 11.6052 -0.8131 -7.1250 0.0000 -0.0000 -26.9191 40.0008 3.6250 -0.0000 0.0000 0.0000 -58.8175 51.5144 -76.9196 -31.5654 42.1979 -12.4479 0.0000 -0.0000 -41.1502 2.9515 16.8248 0.8550 7.1250 -0.0000 -0.0000 20.1898 -13.8063 15.8234
3.4405 17.5608 0.3839 559.8100 87.1041 556.3820 0.0000 0.0000 0.0000 -14.1161 -1.0458 0.2888 0.7974 5.6997 15.9156 0.2829 -8.7369 -10.5231 0.1258 -2.2868 -6.2989 0.0000 0.0000 0.0000 20.8919 -2.6596 2.0039 -0.9377 -6.1679 17.2724 -1.5519 -0.2995 -23.6785 -0.0511 1.4591 -4.0130 3.1526 -0.2136 2.7594 -0.0803 -0.1231 -2.6126 -1.8432 -0.1519 -4.2531 -3.3917 -5.4308 -9.4304 5.0330 -7.4662 11.7303 1.5556 -3.4334 5.4008 -0.0000 -0.0000 0.0000 74.3745 -55.9813 -90.7327 36.6468 -45.9528 -15.9856 -0.0000 0.0000 -99.4350 -3.8920 11.3815 -0.7692 -7.1250 0.0000 -0.0000 -26.7214 39.8135 3.7292 -0.0000 -0.0000 0.0000 -58.9512 51.4298 -77.0265 -31.5957 42.2225 -12.4683 0.0000 -0.0000 -41.1879 2.8459 16.9152 0.8287 7.1250 -0.0000 -0.0000 20.1151 -13.7190 15.7964
3.4410 17.5611 0.3838 559.1010 87.0997 555.6920 0.0000 0.0000 0.0000 -14.1443 -1.0169 0.2510 0.7966 5.6968 15.9073 0.2781 -8.7623 -10.4689 0.1196 -2.2293 -6.1399 0.0000 0.0000 0.0000 20.8628 -2.6546 1.9803 -0.9389 -6.1718 17.2837 -1.5515 -0.3213 -23.6833 -0.0539 1.4975 -4.1188 3.1326 -0.2055 2.7323 -0.0730 -0.1139 -2.6118 -1.8251 -0.1463 -4.2362 -3.3589 -5.4415 -9.4213 5.0218 -7.4773 11.5358 1.5481 -3.4422 5.3375 0.0000 0.0000 0.0000 74.4918 -55.8111 -90.7873 36.7521 -46.0235 -16.0614 -0.0000 0.0000 -99.4719 -3.7470 11.5185 -0.7493 -7.1250 0.0000 -0.0000 -26.6548 39.9495 3.6199 0.0000 0.0000 0.0000 -59.0856 51.3565 -77.1630 -31.6419 42.2598 -12.4993 0.0000 -0.0000 -41.1973 2.8886 17.0254 0.8464 7.1250 -0.0000 -0.0000 20.1315 -13.6162 15.8581
3.4423 17.5610 0.3835 560.6700 87.0757 557.2610 0.0000 0.0000 0.0000 -14.0499 -1.0229 0.2575 0.7956 5.6933 15.8971 0.2755 -8.7332 -10.4243 0.1116 -2.1539 -5.9312 0.0000 0.0000 0.0000 20.9635 -2.6287 1.9915 -0.9400 -6.1752 17.2936 -1.5590 -0.3175 -23.7386 -0.0518 1.4692 -4.0408 3.2487 -0.1916 2.7312 -0.0474 -0.0886 -2.6103 -1.8653 -0.1367 -4.2333 -3.3320 -5.4454 -9.4650 5.0161 -7.4810 11.4227 1.5418 -3.4448 5.3087 0.0000 -0.0000 0.0000 74.7151 -55.6362 -91.0207 36.7437 -46.0178 -16.0553 -0.0000 0.0000 -99.4786 -3.8088 11.6939 -0.7731 -7.1250 0.0000 -0.0000 -26.7691 40.1011 3.5282 0.0000 -0.0000 0.0000 -59.2083 51.2808 -77.3533 -31.6911 42.2995 -12.5324 0.0000 -0.0000 -41.1412 3.0347 16.9036 0.8831 7.1250 -0.0000 -0.0000 20.2344 -13.7339 15.8968
3.4434 17.5622 0.3832 560.6130 87.0639 557.1920 0.0000 0.0000 0.0000 -14.0563 -1.0613 0.2986 0.7936 5.6864 15.8772 0.2789 -8.6887 -10.4533 0.1246 -2.2759 -6.2688 0.0000 0.0000 0.0000 20.9617 -2.6079 2.0060 -0.9415 -6.1802 17.3081 -1.5660 -0.2628 -23.7730 -0.0439 1.3516 -3.7168 3.2977 -0.1802 2.7440 -0.0594 -0.0708 -2.6206 -1.9064 -0.1299 -4.2505 -3.3450 -5.4582 -9.5247 5.0590 -7.5002 11.3953 1.5542 -3.4514 5.3132 -0.0000 0.0000 0.0000 74.9411 -55.5157 -91.2188 36.7528 -46.0240 -16.0619 -0.0000 0.0000 -99.4492 -3.7535 11.5987 -0.7557 -7.1250 0.0000 -0.0000 -26.6895 40.0208 3.5738 -0.0000 0.0000 0.0000 -59.2871 51.2221 -77.5009 -31.7659 42.3598 -12.5828 0.0000 -0.0000 -41.1095 3.1718 16.6203 0.9081 7.1250 -0.0000 -0.0000 20.3475 -14.0027 15.8739
